<?xml version="1.0" encoding="iso-8859-1"?>
<!-- Uploaded to: SVG Repo, www.svgrepo.com, Generator: SVG Repo Mixer Tools -->
<svg fill="#cc2936" height="800px" width="800px" version="1.1" id="Layer_1" xmlns="http://www.w3.org/2000/svg" xmlns:xlink="http://www.w3.org/1999/xlink" 
	 viewBox="0 0 512 512" xml:space="preserve">
<g>
	<g>
		<path d="M459.13,178.235l-46.939-46.939c-0.908-0.908-2.381-0.908-3.29,0l-44.853,44.852c-0.908,0.908-0.908,2.381,0,3.29
			l46.939,46.939c0.908,0.908,2.381,0.908,3.29,0l44.853-44.852C460.038,180.617,460.038,179.144,459.13,178.235z"/>
	</g>
</g>
<g>
	<g>
		<path d="M511.932,33.706c-0.122-1.986-2.565-2.876-3.972-1.469L440.387,99.81c-0.908,0.908-0.908,2.381,0,3.29l46.939,46.939
			c0.908,0.907,2.381,0.907,3.29-0.001l20.702-20.703c0.436-0.436,0.682-1.028,0.682-1.644V35.901
			C512,35.164,511.977,34.431,511.932,33.706z"/>
	</g>
</g>
<g>
	<g>
		<path d="M511.318,230.423l-20.703-20.702c-0.908-0.909-2.381-0.909-3.289-0.001l-44.852,44.852c-0.908,0.908-0.908,2.381,0,3.29
			l44.852,44.852c0.908,0.908,2.381,0.908,3.29,0l20.702-20.702c0.436-0.436,0.682-1.028,0.682-1.644v-48.302
			C512,231.451,511.755,230.859,511.318,230.423z"/>
	</g>
</g>
<g>
	<g>
		<path d="M303.537,333.828l-46.939-46.939c-0.908-0.908-2.381-0.908-3.29,0l-44.48,44.48c-0.908,0.908-0.908,2.381,0,3.29
			l46.939,46.939c0.908,0.908,2.381,0.908,3.29,0l44.48-44.482C304.445,336.208,304.445,334.735,303.537,333.828z"/>
	</g>
</g>
<g>
	<g>
		<path d="M304.365,176.148l-45.308-45.308c-0.909-0.908-2.382-0.908-3.29,0l-47.766,47.766c-0.908,0.908-0.908,2.381,0,3.29
			l45.308,45.308c0.908,0.908,2.381,0.908,3.29,0l47.766-47.766C305.273,178.53,305.273,177.057,304.365,176.148z"/>
	</g>
</g>
<g>
	<g>
		<path d="M382.79,254.574l-46.939-46.939c-0.908-0.909-2.381-0.909-3.29,0l-47.766,47.766c-0.908,0.908-0.908,2.381,0,3.29
			l46.939,46.939c0.908,0.908,2.381,0.908,3.29,0l47.766-47.766C383.698,256.956,383.698,255.484,382.79,254.574z"/>
	</g>
</g>
<g>
	<g>
		<path d="M225.111,255.401l-45.308-45.308c-0.908-0.908-2.381-0.908-3.29,0l-44.479,44.482c-0.908,0.908-0.908,2.381,0,3.29
			l45.308,45.308c0.908,0.908,2.381,0.908,3.289-0.001l44.48-44.48C226.018,257.783,226.018,256.31,225.111,255.401z"/>
	</g>
</g>
<g>
	<g>
		<path d="M303.908,486.133l-44.852-44.852c-0.908-0.908-2.381-0.908-3.29,0l-47.149,47.149c-0.907,0.909-0.907,2.382,0.001,3.29
			l19.598,19.598c0.436,0.436,1.027,0.682,1.644,0.682h50.508c0.617,0,1.208-0.245,1.644-0.682l21.895-21.895
			C304.816,488.515,304.816,487.042,303.908,486.133z"/>
	</g>
</g>
<g>
	<g>
		<path d="M511.318,383.102l-20.702-20.702c-0.908-0.908-2.381-0.908-3.29,0l-47.766,47.766c-0.908,0.908-0.908,2.381,0,3.29
			l68.226,68.226c1.369,1.369,3.734,0.569,3.962-1.353c0.165-1.388,0.25-2.799,0.25-4.231v-91.351
			C512,384.13,511.754,383.538,511.318,383.102z"/>
	</g>
</g>
<g>
	<g>
		<path d="M70.508,410.004L25.2,364.695c-0.908-0.907-2.381-0.907-3.289,0.001L0.682,385.926C0.245,386.362,0,386.953,0,387.57
			v88.527c0,0.738,0.023,1.47,0.068,2.196c0.122,1.986,2.565,2.876,3.972,1.469l66.469-66.469
			C71.416,412.386,71.416,410.913,70.508,410.004z"/>
	</g>
</g>
<g>
	<g>
		<path d="M303.909,23.014L281.575,0.682C281.139,0.245,280.548,0,279.931,0h-49.632c-0.617,0-1.208,0.245-1.644,0.682
			l-20.037,20.037c-0.908,0.908-0.908,2.381,0,3.29l47.149,47.149c0.908,0.906,2.381,0.906,3.29-0.001l44.852-44.852
			C304.817,25.396,304.817,23.924,303.909,23.014z"/>
	</g>
</g>
<g>
	<g>
		<path d="M69.683,99.972L3.972,34.261C2.526,32.816,0.003,33.804,0,35.848c0,0.017,0,0.036,0,0.053v88.966
			c0,0.617,0.245,1.208,0.682,1.646l21.229,21.229c0.908,0.908,2.381,0.908,3.29,0l44.482-44.48
			C70.591,102.354,70.591,100.881,69.683,99.972z"/>
	</g>
</g>
<g>
	<g>
		<path d="M478.293,0.068C477.567,0.023,476.835,0,476.099,0H387.57c-0.617,0-1.208,0.245-1.644,0.682l-22.333,22.333
			c-0.909,0.908-0.909,2.381-0.001,3.29L408.9,71.613c0.908,0.908,2.381,0.908,3.29,0L479.762,4.04
			C481.168,2.633,480.279,0.19,478.293,0.068z"/>
	</g>
</g>
<g>
	<g>
		<path d="M380.705,99.809L335.396,54.5c-0.908-0.908-2.381-0.908-3.29,0l-44.852,44.852c-0.909,0.909-0.909,2.382,0,3.29
			l45.308,45.308c0.908,0.908,2.381,0.908,3.29,0l44.853-44.852C381.612,102.19,381.612,100.718,380.705,99.809z"/>
	</g>
</g>
<g>
	<g>
		<path d="M148.933,20.718L128.898,0.682C128.462,0.245,127.87,0,127.253,0H35.901c-1.432,0-2.843,0.085-4.231,0.25
			c-1.922,0.229-2.722,2.595-1.353,3.964l67.561,67.561c0.908,0.908,2.381,0.908,3.289-0.001l47.766-47.766
			C149.841,23.099,149.841,21.627,148.933,20.718z"/>
	</g>
</g>
<g>
	<g>
		<path d="M379.878,410.167l-44.852-44.853c-0.911-0.909-2.383-0.909-3.291-0.001l-44.48,44.482c-0.908,0.908-0.908,2.381,0,3.29
			l44.852,44.853c0.908,0.908,2.381,0.908,3.29,0l44.482-44.48C380.786,412.549,380.786,411.076,379.878,410.167z"/>
	</g>
</g>
<g>
	<g>
		<path d="M477.736,508.028l-66.376-66.375c-0.906-0.908-2.379-0.908-3.287,0l-44.482,44.48c-0.908,0.908-0.908,2.381,0,3.29
			l21.895,21.895c0.436,0.436,1.028,0.682,1.644,0.682h88.966c0.017,0,0.036,0,0.053,0
			C478.195,511.997,479.182,509.474,477.736,508.028z"/>
	</g>
</g>
<g>
	<g>
		<path d="M148.935,488.43l-46.939-46.939c-0.908-0.908-2.381-0.908-3.29,0l-66.469,66.469c-1.406,1.406-0.517,3.849,1.469,3.972
			c0.727,0.045,1.458,0.068,2.196,0.068h91.789c0.617,0,1.208-0.245,1.644-0.682l19.598-19.598
			C149.842,490.812,149.842,489.339,148.935,488.43z"/>
	</g>
</g>
<g>
	<g>
		<path d="M459.13,330.913l-44.853-44.852c-0.909-0.908-2.382-0.908-3.29,0l-47.766,47.766c-0.908,0.908-0.908,2.381,0,3.29
			l44.853,44.853c0.908,0.908,2.381,0.908,3.29,0l47.766-47.766C460.038,333.295,460.038,331.822,459.13,330.913z"/>
	</g>
</g>
<g>
	<g>
		<path d="M227.57,99.354L180.42,52.205c-0.908-0.908-2.381-0.908-3.29,0l-47.766,47.766c-0.908,0.908-0.908,2.381,0,3.29
			l47.149,47.149c0.908,0.908,2.381,0.908,3.29,0l47.766-47.766C228.478,101.736,228.478,100.263,227.57,99.354z"/>
	</g>
</g>
<g>
	<g>
		<path d="M148.316,178.606l-47.149-47.148c-0.908-0.908-2.381-0.908-3.29,0l-44.48,44.48c-0.908,0.908-0.908,2.381,0,3.29
			l47.149,47.149c0.908,0.908,2.381,0.908,3.29,0l44.48-44.482C149.224,180.988,149.224,179.515,148.316,178.606z"/>
	</g>
</g>
<g>
	<g>
		<path d="M149.145,331.37l-45.308-45.308c-0.909-0.909-2.382-0.909-3.29,0l-47.149,47.149c-0.908,0.908-0.908,2.381,0,3.29
			l45.308,45.308c0.908,0.908,2.381,0.908,3.29,0l47.149-47.149C150.052,333.752,150.052,332.279,149.145,331.37z"/>
	</g>
</g>
<g>
	<g>
		<path d="M227.57,409.795l-46.939-46.939c-0.908-0.908-2.381-0.908-3.29,0l-47.149,47.149c-0.908,0.908-0.908,2.381,0,3.29
			l46.939,46.939c0.908,0.908,2.381,0.908,3.29,0l47.149-47.149C228.478,412.176,228.478,410.703,227.57,409.795z"/>
	</g>
</g>
<g>
	<g>
		<path d="M72.35,254.573l-47.149-47.149c-0.909-0.908-2.382-0.908-3.291,0.001L0.682,228.653C0.245,229.089,0,229.682,0,230.299
			v51.84c0,0.617,0.245,1.208,0.682,1.644l21.229,21.229c0.908,0.908,2.381,0.908,3.29,0l47.149-47.149
			C73.258,256.955,73.258,255.482,72.35,254.573z"/>
	</g>
</g>
</svg>